<svg style="display: none"
    xmlns="http://www.w3.org/2000/svg">
    <symbol id="arrow-down" viewBox="0 0 491.996 491.996">
        <g>
            <path d="M484.132,124.986l-16.116-16.228c-5.072-5.068-11.82-7.86-19.032-7.86c-7.208,0-13.964,2.792-19.036,7.86l-183.84,183.848
			L62.056,108.554c-5.064-5.068-11.82-7.856-19.028-7.856s-13.968,2.788-19.036,7.856l-16.12,16.128
			c-10.496,10.488-10.496,27.572,0,38.06l219.136,219.924c5.064,5.064,11.812,8.632,19.084,8.632h0.084
			c7.212,0,13.96-3.572,19.024-8.632l218.932-219.328c5.072-5.064,7.856-12.016,7.864-19.224
			C491.996,136.902,489.204,130.046,484.132,124.986z"/>
        </g>
    </symbol>
    <symbol id="world" viewBox="0 0 480 480">
        <g>
            <path d="m240 0c-132.546875 0-240 107.453125-240 240s107.453125 240 240 240 240-107.453125 240-240c-.148438-132.484375-107.515625-239.851562-240-240zm207.566406 324.078125-68.253906 11.777344c7.8125-28.652344 12.03125-58.164063 12.558594-87.855469h71.929687c-.902343 26.117188-6.398437 51.871094-16.234375 76.078125zm-431.367187-76.078125h71.929687c.527344 29.691406 4.746094 59.203125 12.558594 87.855469l-68.253906-11.777344c-9.835938-24.207031-15.332032-49.960937-16.234375-76.078125zm16.234375-92.078125 68.253906-11.777344c-7.8125 28.652344-12.03125 58.164063-12.558594 87.855469h-71.929687c.902343-26.117188 6.398437-51.871094 16.234375-76.078125zm215.566406-27.472656c28.746094.367187 57.421875 2.984375 85.761719 7.832031l28.238281 4.871094c8.675781 29.523437 13.34375 60.078125 13.878906 90.847656h-127.878906zm88.488281-7.9375c-29.238281-4.996094-58.828125-7.695313-88.488281-8.0625v-96c45.863281 4.40625 85.703125 46.398437 108.28125 107.511719zm-104.488281-8.0625c-29.660156.367187-59.242188 3.066406-88.480469 8.0625l-19.800781 3.425781c22.578125-61.128906 62.417969-103.136719 108.28125-107.523438zm-85.753906 23.832031c28.335937-4.847656 57.007812-7.464844 85.753906-7.832031v103.550781h-127.878906c.535156-30.769531 5.203125-61.324219 13.878906-90.847656zm-42.125 111.71875h127.878906v103.550781c-28.746094-.367187-57.421875-2.984375-85.761719-7.832031l-28.238281-4.871094c-8.675781-29.523437-13.34375-60.078125-13.878906-90.847656zm39.390625 111.488281c29.238281 5.003907 58.824219 7.714844 88.488281 8.105469v96c-45.863281-4.410156-85.703125-46.402344-108.28125-107.515625zm104.488281 8.105469c29.660156-.390625 59.242188-3.101562 88.480469-8.105469l19.800781-3.425781c-22.578125 61.128906-62.417969 103.136719-108.28125 107.523438zm85.753906-23.875c-28.335937 4.847656-57.007812 7.464844-85.753906 7.832031v-103.550781h127.878906c-.535156 30.769531-5.203125 61.324219-13.878906 90.847656zm58.117188-111.71875c-.527344-29.691406-4.746094-59.203125-12.558594-87.855469l68.253906 11.777344c9.835938 24.207031 15.332032 49.960937 16.234375 76.078125zm47.601562-93.710938-65.425781-11.289062c-11.761719-38.371094-33.765625-72.808594-63.648437-99.601562 55.878906 18.648437 102.21875 58.457031 129.074218 110.890624zm-269.871094-110.890624c-29.882812 26.792968-51.886718 61.230468-63.648437 99.601562l-65.425781 11.289062c26.855468-52.433593 73.195312-92.242187 129.074218-110.890624zm-129.074218 314.3125 65.425781 11.289062c11.761719 38.371094 33.765625 72.808594 63.648437 99.601562-55.878906-18.648437-102.21875-58.457031-129.074218-110.890624zm269.871094 110.890624c29.882812-26.792968 51.886718-61.230468 63.648437-99.601562l65.425781-11.289062c-26.855468 52.433593-73.195312 92.242187-129.074218 110.890624zm0 0"/>
        </g>
    </symbol>
    <symbol id="develompent" viewBox="0 0 480 480">
        <g>
            <path d="m58.960938 187.046875c1.460937 1.460937 3.378906 2.195313 5.296874 2.195313 1.917969 0 3.835938-.730469 5.300782-2.195313 2.925781-2.925781 2.925781-7.671875 0-10.597656l-18.195313-18.195313 18.195313-18.191406c2.925781-2.929688 2.925781-7.671875 0-10.597656-2.925782-2.925782-7.671875-2.925782-10.597656 0l-23.492188 23.492187c-1.40625 1.40625-2.195312 3.3125-2.195312 5.296875 0 1.988282.789062 3.894532 2.195312 5.300782zm0 0"/>
            <path d="m133.320312 158.253906-18.195312 18.195313c-2.925781 2.925781-2.925781 7.671875.003906 10.597656 1.460938 1.460937 3.378906 2.195313 5.296875 2.195313s3.835938-.734376 5.296875-2.195313l23.496094-23.496094c2.925781-2.925781 2.925781-7.671875 0-10.59375l-23.496094-23.496093c-2.925781-2.925782-7.667968-2.925782-10.59375 0-2.929687 2.929687-2.929687 7.671874 0 10.597656zm0 0"/>
            <path d="m81.171875 188.722656c.898437.351563 1.828125.519532 2.738281.519532 2.992188 0 5.816406-1.804688 6.976563-4.753907l18.457031-46.988281c1.515625-3.851562-.382812-8.199219-4.234375-9.714844-3.847656-1.511718-8.199219.382813-9.710937 4.234375l-18.460938 46.988281c-1.511719 3.851563.382812 8.203126 4.234375 9.714844zm0 0"/>
            <path d="m45.007812 233.203125h50.480469c4.136719 0 7.492188-3.355469 7.492188-7.496094 0-4.136719-3.355469-7.492187-7.492188-7.492187h-50.480469c-4.140624 0-7.492187 3.355468-7.492187 7.492187 0 4.140625 3.351563 7.496094 7.492187 7.496094zm0 0"/>
            <path d="m211.753906 218.214844h-88.75c-4.136718 0-7.492187 3.355468-7.492187 7.492187 0 4.140625 3.355469 7.496094 7.492187 7.496094h88.75c4.140625 0 7.496094-3.355469 7.496094-7.496094 0-4.136719-3.355469-7.492187-7.496094-7.492187zm0 0"/>
            <path d="m45.007812 264.808594h21.503907c4.136719 0 7.492187-3.355469 7.492187-7.496094 0-4.136719-3.355468-7.492188-7.492187-7.492188h-21.503907c-4.140624 0-7.492187 3.355469-7.492187 7.492188 0 4.140625 3.351563 7.496094 7.492187 7.496094zm0 0"/>
            <path d="m184.339844 249.820312c-4.140625 0-7.492188 3.355469-7.492188 7.492188 0 4.140625 3.351563 7.496094 7.492188 7.496094h13.09375c4.140625 0 7.496094-3.355469 7.496094-7.496094 0-4.136719-3.355469-7.492188-7.496094-7.492188zm0 0"/>
            <path d="m164.617188 257.3125c0-4.136719-3.355469-7.492188-7.492188-7.492188h-64.320312c-4.140626 0-7.492188 3.355469-7.492188 7.492188 0 4.140625 3.351562 7.496094 7.492188 7.496094h64.320312c4.136719 0 7.492188-3.355469 7.492188-7.496094zm0 0"/>
            <path d="m213.703125 257.3125c0 4.140625 3.355469 7.496094 7.492187 7.496094h24.527344c4.140625 0 7.496094-3.355469 7.496094-7.496094 0-4.136719-3.355469-7.492188-7.496094-7.492188h-24.527344c-4.136718 0-7.492187 3.355469-7.492187 7.492188zm0 0"/>
            <path d="m172.894531 164.265625h25.871094c4.140625 0 7.496094-3.355469 7.496094-7.496094 0-4.136719-3.355469-7.492187-7.496094-7.492187h-25.871094c-4.140625 0-7.496093 3.355468-7.496093 7.492187 0 4.140625 3.355468 7.496094 7.496093 7.496094zm0 0"/>
            <path d="m227.742188 164.265625h157.855468c4.140625 0 7.492188-3.355469 7.492188-7.496094 0-4.136719-3.351563-7.492187-7.492188-7.492187h-157.855468c-4.140626 0-7.496094 3.355468-7.496094 7.492187 0 4.140625 3.355468 7.496094 7.496094 7.496094zm0 0"/>
            <path d="m361.621094 182.246094h-63.945313c-4.136719 0-7.492187 3.355468-7.492187 7.496094 0 4.136718 3.355468 7.492187 7.492187 7.492187h63.945313c4.136718 0 7.492187-3.355469 7.492187-7.492187 0-4.140626-3.355469-7.496094-7.492187-7.496094zm0 0"/>
            <path d="m273.699219 182.246094h-21.980469c-4.140625 0-7.492188 3.355468-7.492188 7.496094 0 4.136718 3.351563 7.492187 7.492188 7.492187h21.980469c4.140625 0 7.492187-3.355469 7.492187-7.492187 0-4.140626-3.351562-7.496094-7.492187-7.496094zm0 0"/>
            <path d="m172.894531 197.234375h53.847657c4.136718 0 7.492187-3.355469 7.492187-7.492187 0-4.140626-3.355469-7.496094-7.492187-7.496094h-53.847657c-4.140625 0-7.496093 3.355468-7.496093 7.496094 0 4.136718 3.355468 7.492187 7.496093 7.492187zm0 0"/>
            <path d="m157.21875 281.160156h-50.476562c-4.140626 0-7.496094 3.355469-7.496094 7.492188 0 4.136718 3.355468 7.492187 7.496094 7.492187h50.476562c4.136719 0 7.492188-3.355469 7.492188-7.492187 0-4.136719-3.355469-7.492188-7.492188-7.492188zm0 0"/>
            <path d="m83.789062 281.160156h-38.78125c-4.140624 0-7.492187 3.355469-7.492187 7.492188 0 4.136718 3.351563 7.492187 7.492187 7.492187h38.78125c4.140626 0 7.492188-3.355469 7.492188-7.492187 0-4.136719-3.351562-7.492188-7.492188-7.492188zm0 0"/>
            <path d="m248.722656 281.160156h-65.941406c-4.140625 0-7.492188 3.355469-7.492188 7.492188 0 4.136718 3.351563 7.492187 7.492188 7.492187h65.941406c4.136719 0 7.492188-3.355469 7.492188-7.492187 0-4.136719-3.355469-7.492188-7.492188-7.492188zm0 0"/>
            <path d="m337.898438 242.667969h-36.058594c-4.136719 0-7.492188 3.355469-7.492188 7.492187 0 4.140625 3.355469 7.496094 7.492188 7.496094h36.058594c4.140624 0 7.492187-3.355469 7.492187-7.496094 0-4.136718-3.351563-7.492187-7.492187-7.492187zm0 0"/>
            <path d="m400.46875 257.65625h50.902344c4.140625 0 7.496094-3.355469 7.496094-7.496094 0-4.136718-3.355469-7.492187-7.496094-7.492187h-50.902344c-4.140625 0-7.492188 3.355469-7.492188 7.492187 0 4.140625 3.355469 7.496094 7.492188 7.496094zm0 0"/>
            <path d="m375.015625 242.667969h-11.664063c-4.140624 0-7.496093 3.355469-7.496093 7.492187 0 4.140625 3.355469 7.496094 7.496093 7.496094h11.664063c4.140625 0 7.492187-3.355469 7.492187-7.496094 0-4.136718-3.351562-7.492187-7.492187-7.492187zm0 0"/>
            <path d="m301.839844 339.3125h36.058594c4.140624 0 7.492187-3.351562 7.492187-7.492188 0-4.136718-3.351563-7.492187-7.492187-7.492187h-36.058594c-4.136719 0-7.492188 3.355469-7.492188 7.492187 0 4.140626 3.355469 7.492188 7.492188 7.492188zm0 0"/>
            <path d="m400.46875 339.3125h50.902344c4.140625 0 7.496094-3.351562 7.496094-7.492188 0-4.136718-3.355469-7.492187-7.496094-7.492187h-50.902344c-4.140625 0-7.492188 3.355469-7.492188 7.492187 0 4.140626 3.355469 7.492188 7.492188 7.492188zm0 0"/>
            <path d="m363.351562 339.3125h11.664063c4.140625 0 7.496094-3.351562 7.496094-7.492188 0-4.136718-3.355469-7.492187-7.496094-7.492187h-11.664063c-4.140624 0-7.492187 3.355469-7.492187 7.492187 0 4.140626 3.351563 7.492188 7.492187 7.492188zm0 0"/>
            <path d="m337.898438 405.988281h-36.058594c-4.136719 0-7.492188 3.355469-7.492188 7.492188s3.355469 7.492187 7.492188 7.492187h36.058594c4.140624 0 7.492187-3.355468 7.492187-7.492187s-3.351563-7.492188-7.492187-7.492188zm0 0"/>
            <path d="m451.371094 405.988281h-50.902344c-4.140625 0-7.492188 3.355469-7.492188 7.492188s3.351563 7.492187 7.492188 7.492187h50.902344c4.140625 0 7.496094-3.355468 7.496094-7.492187s-3.355469-7.492188-7.496094-7.492188zm0 0"/>
            <path d="m375.015625 405.988281h-11.664063c-4.140624 0-7.496093 3.355469-7.496093 7.492188s3.355469 7.492187 7.496093 7.492187h11.664063c4.140625 0 7.492187-3.355468 7.492187-7.492187s-3.351562-7.492188-7.492187-7.492188zm0 0"/>
            <path d="m479.023438.5h-446.042969c-18.183594 0-32.980469 14.792969-32.980469 32.980469v362.566406c0 18.183594 14.796875 32.976563 32.980469 32.976563h28.199219c4.136718 0 7.492187-3.351563 7.492187-7.492188 0-4.136719-3.355469-7.492188-7.492187-7.492188h-28.199219c-9.921875 0-17.992188-8.070312-17.992188-17.992187v-28.425781h272.996094v12.914062h-5.941406c-8.128907 0-14.738281 6.609375-14.738281 14.738282v18.765624h-160.566407c-4.136719 0-7.492187 3.355469-7.492187 7.492188 0 4.140625 3.355468 7.492188 7.492187 7.492188h72.046875v26.875h-22.625c-15.09375 0-27.371094 12.28125-27.371094 27.371093v16.1875c0 6.886719 5.601563 12.488281 12.488282 12.488281h228.875c6.886718 0 12.488281-5.601562 12.488281-12.488281v-16.1875c0-15.089843-12.277344-27.371093-27.371094-27.371093h-22.625v-9.472657h138.527344c8.125 0 14.734375-6.609375 14.734375-14.738281v-3.527344c14.605469-3.390625 25.523438-16.496094 25.523438-32.113281l.566406-362.570313c.003906-18.183593-14.789063-32.976562-32.972656-32.976562zm-196.730469 349.28125v-35.917969h188.628906v35.917969zm20.675781-50.90625v-15.765625h147.273438v15.765625zm147.273438 65.890625v15.769531h-147.273438v-15.769531zm-256.472657 64.257813h73.535157v2.667968c0 8.125 6.609374 14.734375 14.738281 14.734375h35.617187v9.472657h-123.890625zm161.503907 41.863281c6.828124 0 12.382812 5.554687 12.382812 12.382812v13.691407h-223.882812v-13.691407c0-6.828125 5.558593-12.382812 12.386718-12.382812zm115.648437-39.449219h-188.628906v-35.914062h188.628906zm25.523437-35.390625c0 7.257813-4.328124 13.511719-10.535156 16.351563v-17.128907c0-8.125-6.613281-14.734375-14.738281-14.734375h-5.941406v-12.914062h31.214843zm0-43.410156h-10.78125c.152344-.847657.246094-39.023438.246094-39.023438 0-8.128906-6.613281-14.738281-14.738281-14.738281h-5.941406v-15.765625h5.941406c8.125 0 14.738281-6.613281 14.738281-14.738281v-36.417969c0-8.125-6.613281-14.738281-14.738281-14.738281h-42.324219c-4.140625 0-7.492187 3.355468-7.492187 7.496094 0 4.136718 3.351562 7.492187 7.492187 7.492187h42.074219v35.917969h-188.628906v-35.917969h99.929687c4.140625 0 7.492188-3.355469 7.492188-7.492187 0-4.140626-3.351563-7.496094-7.492188-7.496094h-100.179687c-8.128907 0-14.738281 6.613281-14.738281 14.738281v36.417969c0 8.125 6.609374 14.738281 14.738281 14.738281h5.941406v15.765625h-5.941406c-8.128907 0-14.738281 6.613281-14.738281 14.738281 0 0 .09375 38.175781.246093 39.023438h-252.5625v-250.207031h481.457031zm0-265.195313h-480.90625v-53.964844c0-9.917968 8.070313-17.988281 17.992188-17.988281h444.921875c9.921875 0 17.992187 8.070313 17.992187 17.992188zm0 0"/>
            <path d="m55.261719 29.261719c-12.125 0-21.988281 9.863281-21.988281 21.988281s9.863281 21.992188 21.988281 21.992188 21.992187-9.867188 21.992187-21.992188-9.867187-21.988281-21.992187-21.988281zm0 28.992187c-3.859375 0-7.003907-3.140625-7.003907-7.003906 0-3.859375 3.144532-7.003906 7.003907-7.003906 3.863281 0 7.003906 3.144531 7.003906 7.003906 0 3.863281-3.140625 7.003906-7.003906 7.003906zm0 0"/>
            <path d="m111.25 29.261719c-12.125 0-21.992188 9.863281-21.992188 21.988281s9.867188 21.992188 21.992188 21.992188 21.988281-9.867188 21.988281-21.992188-9.867187-21.988281-21.988281-21.988281zm0 28.992187c-3.863281 0-7.003906-3.140625-7.003906-7.003906 0-3.859375 3.140625-7.003906 7.003906-7.003906 3.859375 0 7.003906 3.144531 7.003906 7.003906 0 3.863281-3.144531 7.003906-7.003906 7.003906zm0 0"/>
            <path d="m167.234375 29.261719c-12.125 0-21.988281 9.863281-21.988281 21.988281s9.863281 21.992188 21.988281 21.992188 21.992187-9.867188 21.992187-21.992188-9.867187-21.988281-21.992187-21.988281zm0 28.992187c-3.859375 0-7.003906-3.140625-7.003906-7.003906 0-3.859375 3.144531-7.003906 7.003906-7.003906 3.863281 0 7.003906 3.144531 7.003906 7.003906 0 3.863281-3.140625 7.003906-7.003906 7.003906zm0 0"/>
        </g>
    </symbol>
    <symbol id="calendar" viewBox="0 0 512 512">
        <g>
            <g>
                <path d="M452,40h-24V0h-40v40H124V0H84v40H60C26.916,40,0,66.916,0,100v352c0,33.084,26.916,60,60,60h392
			c33.084,0,60-26.916,60-60V100C512,66.916,485.084,40,452,40z M472,452c0,11.028-8.972,20-20,20H60c-11.028,0-20-8.972-20-20V188
			h432V452z M472,148H40v-48c0-11.028,8.972-20,20-20h24v40h40V80h264v40h40V80h24c11.028,0,20,8.972,20,20V148z"/>
            </g>
        </g>
        <g>
            <g>
                <rect x="76" y="230" width="40" height="40"/>
            </g>
        </g>
        <g>
            <g>
                <rect x="156" y="230" width="40" height="40"/>
            </g>
        </g>
        <g>
            <g>
                <rect x="236" y="230" width="40" height="40"/>
            </g>
        </g>
        <g>
            <g>
                <rect x="316" y="230" width="40" height="40"/>
            </g>
        </g>
        <g>
            <g>
                <rect x="396" y="230" width="40" height="40"/>
            </g>
        </g>
        <g>
            <g>
                <rect x="76" y="310" width="40" height="40"/>
            </g>
        </g>
        <g>
            <g>
                <rect x="156" y="310" width="40" height="40"/>
            </g>
        </g>
        <g>
            <g>
                <rect x="236" y="310" width="40" height="40"/>
            </g>
        </g>
        <g>
            <g>
                <rect x="316" y="310" width="40" height="40"/>
            </g>
        </g>
        <g>
            <g>
                <rect x="76" y="390" width="40" height="40"/>
            </g>
        </g>
        <g>
            <g>
                <rect x="156" y="390" width="40" height="40"/>
            </g>
        </g>
        <g>
            <g>
                <rect x="236" y="390" width="40" height="40"/>
            </g>
        </g>
        <g>
            <g>
                <rect x="316" y="390" width="40" height="40"/>
            </g>
        </g>
        <g>
            <g>
                <rect x="396" y="310" width="40" height="40"/>
            </g>
        </g>
    </symbol>
    <symbol id="file" viewBox="-66 0 569 569.286">
        <path d="m.109375 66.382812v493.132813c0 5.238281 4.246094 9.484375 9.484375 9.484375h360.367188c5.234374 0 9.480468-4.246094 9.480468-9.484375v-398.296875c0-.210938-.101562-.390625-.121094-.597656-.046874-.832032-.210937-1.652344-.484374-2.4375-.105469-.304688-.179688-.597656-.3125-.894532-.460938-1.03125-1.101563-1.972656-1.898438-2.777343l-94.832031-94.832031c-.804688-.800782-1.75-1.441407-2.789063-1.898438-.285156-.121094-.574218-.222656-.871094-.3125-.792968-.273438-1.617187-.4375-2.457031-.492188-.160156.027344-.347656-.074218-.546875-.074218h-265.535156c-5.238281 0-9.484375 4.242187-9.484375 9.480468zm346.957031 85.351563h-62.457031v-62.457031zm-327.992187-75.867187h246.570312v85.351562c0 5.234375 4.246094 9.480469 9.480469 9.480469h85.351562v379.335937h-341.402343zm0 0"/>
        <path d="m398.410156 493.132812v18.964844h28.449219c5.238281 0 9.484375-4.242187 9.484375-9.480468v-493.132813c0-5.238281-4.246094-9.484375-9.484375-9.484375h-360.367187c-5.238282 0-9.484376 4.246094-9.484376 9.484375v28.449219h18.96875v-18.96875h341.398438v474.167968zm0 0"/>
        <path d="m75.976562 189.667969h227.597657v18.964843h-227.597657zm0 0"/>
        <path d="m75.976562 132.765625h75.867188v18.96875h-75.867188zm0 0"/>
        <path d="m75.976562 246.566406h151.734376v18.96875h-151.734376zm0 0"/>
        <path d="m246.675781 246.566406h56.898438v18.96875h-56.898438zm0 0"/>
        <path d="m75.976562 303.464844h227.597657v18.96875h-227.597657zm0 0"/>
        <path d="m75.976562 417.265625h227.597657v18.96875h-227.597657zm0 0"/>
        <path d="m161.324219 360.367188h142.25v18.964843h-142.25zm0 0"/>
        <path d="m75.976562 360.367188h66.382813v18.964843h-66.382813zm0 0"/>
        <path d="m75.976562 474.167969h37.933594v18.964843h-37.933594zm0 0"/>
        <path d="m132.875 474.167969h170.699219v18.964843h-170.699219zm0 0"/>
    </symbol>
</svg>
