<svg style="display: none"
    xmlns="http://www.w3.org/2000/svg">
    <symbol id="location" viewBox="0 0 384 384">
        <g>
            <path
            d="M353.188,252.052c-23.51,0-46.594-3.677-68.469-10.906c-10.719-3.656-23.896-0.302-30.438,6.417l-43.177,32.594
			c-50.073-26.729-80.917-57.563-107.281-107.26l31.635-42.052c8.219-8.208,11.167-20.198,7.635-31.448
			c-7.26-21.99-10.948-45.063-10.948-68.583C132.146,13.823,118.323,0,101.333,0H30.813C13.823,0,0,13.823,0,30.813
			C0,225.563,158.438,384,353.188,384c16.99,0,30.813-13.823,30.813-30.813v-70.323C384,265.875,370.177,252.052,353.188,252.052z"
          />
        </g>
    </symbol>
    <symbol id="telephone" viewBox="0 0 512 512" >
        <g>
            <path
            d="M256,0C153.755,0,70.573,83.182,70.573,185.426c0,126.888,165.939,313.167,173.004,321.035
            c6.636,7.391,18.222,7.378,24.846,0c7.065-7.868,173.004-194.147,173.004-321.035C441.425,83.182,358.244,0,256,0z M256,278.719
            c-51.442,0-93.292-41.851-93.292-93.293S204.559,92.134,256,92.134s93.291,41.851,93.291,93.293S307.441,278.719,256,278.719z"
          />
        </g>
    </symbol>
    <symbol id="map" viewBox="0 0 64 64" >
        <g>
            <path d="M63.5,16c-0.3-0.2-0.7-0.3-1-0.1l-20.4,7.3l-14.3-5.2c0.8-2,1.2-3.8,1.2-5.3c0-2.7-1-5.1-2.9-7c-1.9-1.9-4.4-2.9-7-2.9    c-5.5,0-9.9,4.4-9.9,9.9c0,1.9,0.7,4.2,1.9,7L0.7,23.2c-0.4,0.2-0.7,0.6-0.7,1v36c0,0.4,0.2,0.7,0.5,0.9c0.2,0.1,0.4,0.2,0.6,0.2    c0.1,0,0.3,0,0.4-0.1L21.9,54l19.8,7.3c0.2,0.1,0.5,0.1,0.7,0l20.8-7.4c0.4-0.2,0.7-0.6,0.7-1v-36C64,16.5,63.8,16.2,63.5,16z     M19.1,4.8c2.1,0,4,0.8,5.4,2.3c0,0,0,0,0,0c1.5,1.4,2.3,3.4,2.3,5.4c0,1.4-0.5,3.3-1.5,5.5c-1.8,4-4.8,8.2-6.2,10.1    c-0.2-0.2-0.3-0.4-0.5-0.7c-1.3-1.8-3.4-4.8-4.9-7.9c-1.5-2.9-2.2-5.3-2.2-7.1C11.4,8.3,14.9,4.8,19.1,4.8z M61.8,52.1l-19.7,7    l-19.8-7.3c-0.1,0-0.3-0.1-0.4-0.1c-0.1,0-0.3,0-0.4,0.1L2.2,58.7V25l10-3.5c0,0,0,0,0,0.1c0.1,0.1,0.1,0.2,0.2,0.3    c0.1,0.2,0.2,0.4,0.3,0.6c0.1,0.1,0.1,0.2,0.2,0.3c0.1,0.2,0.2,0.4,0.3,0.6c0.1,0.1,0.1,0.2,0.2,0.3c0.1,0.2,0.2,0.4,0.3,0.5    c0.1,0.1,0.1,0.2,0.2,0.3c0.1,0.2,0.2,0.3,0.3,0.5c0.1,0.1,0.1,0.2,0.2,0.3c0.1,0.2,0.2,0.3,0.3,0.5c0.1,0.1,0.1,0.2,0.2,0.3    c0.1,0.2,0.2,0.3,0.3,0.5c0.1,0.1,0.1,0.2,0.2,0.3c0.1,0.2,0.2,0.3,0.3,0.5c0.1,0.1,0.1,0.2,0.2,0.2c0.1,0.2,0.2,0.3,0.3,0.4    c0,0.1,0.1,0.1,0.1,0.2c0.1,0.2,0.2,0.3,0.3,0.4c0,0,0.1,0.1,0.1,0.1c0.1,0.1,0.2,0.3,0.3,0.4c0,0,0.1,0.1,0.1,0.1    c0.1,0.1,0.2,0.3,0.3,0.4c0,0,0,0,0,0c0.1,0.1,0.2,0.2,0.3,0.3c0,0,0,0,0,0c0.2,0.3,0.4,0.5,0.4,0.6c0.2,0.3,0.5,0.4,0.9,0.4    c0.3,0,0.6-0.2,0.9-0.4c0,0,0.1-0.1,0.3-0.3c0,0,0.1-0.1,0.1-0.1c0.1-0.1,0.1-0.1,0.2-0.2c0,0,0.1-0.1,0.1-0.1    c0.1-0.1,0.1-0.2,0.2-0.3c0-0.1,0.1-0.1,0.1-0.2c0.1-0.1,0.2-0.2,0.2-0.3c0.1-0.1,0.1-0.2,0.2-0.3c0.1-0.1,0.2-0.2,0.3-0.4    c0.1-0.1,0.1-0.2,0.2-0.3c0.1-0.1,0.2-0.2,0.3-0.4c0.1-0.1,0.2-0.2,0.2-0.3c0.1-0.1,0.2-0.3,0.3-0.4c0.1-0.1,0.2-0.3,0.3-0.4    c0.1-0.1,0.2-0.3,0.3-0.4c0.1-0.1,0.2-0.3,0.3-0.4c0.1-0.2,0.2-0.3,0.3-0.5c0.1-0.1,0.2-0.3,0.3-0.4c0.1-0.2,0.2-0.3,0.3-0.5    c0.1-0.2,0.2-0.3,0.3-0.5c0.1-0.2,0.2-0.3,0.3-0.5c0.1-0.2,0.2-0.3,0.3-0.5c0.1-0.2,0.2-0.3,0.3-0.5c0.1-0.2,0.2-0.3,0.3-0.5    c0.1-0.2,0.2-0.3,0.3-0.5c0.1-0.2,0.2-0.3,0.3-0.5c0.1-0.2,0.2-0.4,0.3-0.5c0.1-0.2,0.2-0.3,0.2-0.5c0,0,0,0,0-0.1l14.8,5.4    c0.2,0.1,0.5,0.1,0.7,0l19.3-6.9V52.1z"/>
            <path d="M52.5,42.4c0.2,0.1,0.5,0.1,0.7,0.1c0.6,0,1.2-0.2,1.7-0.5c0.7-0.5,1.2-1.2,1.4-2c0.2-0.8,0-1.7-0.4-2.4    c-0.5-0.7-1.2-1.2-2-1.4c-1.7-0.4-3.5,0.7-3.9,2.4v0c-0.2,0.8,0,1.7,0.4,2.4C51,41.7,51.7,42.2,52.5,42.4z M52.2,39    c0.1-0.6,0.7-0.9,1.2-0.8c0.3,0.1,0.5,0.2,0.6,0.5c0.1,0.2,0.2,0.5,0.1,0.8c-0.1,0.3-0.2,0.5-0.5,0.6c-0.2,0.1-0.5,0.2-0.8,0.1    c-0.3-0.1-0.5-0.2-0.6-0.5C52.2,39.5,52.2,39.3,52.2,39z"/>
            <path d="M11,39.1l-0.7,0.4l-0.4-0.7c-0.3-0.5-1-0.7-1.5-0.3c-0.5,0.3-0.7,1-0.3,1.5l0.4,0.7l-0.7,0.4c-0.5,0.3-0.7,1-0.3,1.5    C7.6,43,8,43.1,8.3,43.1c0.2,0,0.4-0.1,0.6-0.2l0.7-0.4l0.4,0.7c0.2,0.3,0.6,0.5,0.9,0.5c0.2,0,0.4-0.1,0.6-0.2    c0.5-0.3,0.7-1,0.3-1.5l-0.4-0.7l0.7-0.4c0.5-0.3,0.7-1,0.3-1.5C12.2,38.9,11.5,38.8,11,39.1z"/>
            <path d="M21.3,42.1c-1.3,0-3-0.2-4.1-0.5c-0.6-0.1-1.2,0.3-1.3,0.9c-0.1,0.6,0.3,1.2,0.9,1.3c1.1,0.2,2.9,0.5,4.5,0.5c0,0,0,0,0,0    c0.6,0,1.1-0.5,1.1-1.1C22.4,42.6,21.9,42.1,21.3,42.1z"/>
            <path d="M29.5,38.3c-0.7,1-1.5,1.8-2.5,2.4c-0.3,0.2-0.7,0.4-1.1,0.6c-0.6,0.2-0.8,0.9-0.6,1.5c0.2,0.4,0.6,0.7,1,0.7    c0.1,0,0.3,0,0.4-0.1c0.5-0.2,0.9-0.4,1.3-0.7c1.2-0.8,2.2-1.7,3.1-2.9c0.4-0.5,0.3-1.2-0.2-1.5C30.6,37.7,29.9,37.8,29.5,38.3z"/>
            <path d="M37.5,31.1c-1.1,0-1.7,0.3-2.3,0.5c-1.4,0.6-2.6,1.9-2.9,2.3c-0.4,0.5-0.3,1.2,0.1,1.6c0.2,0.2,0.5,0.3,0.7,0.3    c0.3,0,0.6-0.1,0.8-0.4c0.5-0.6,1.3-1.3,2.1-1.7c0.6-0.2,0.8-0.3,1.5-0.4c0.6,0,1.1-0.5,1.1-1.1C38.6,31.6,38.1,31.1,37.5,31.1z"/>
            <path d="M41.6,32.8c-0.2,0.6,0,1.2,0.6,1.5c1.1,0.5,2.7,1.3,3.9,2.2c0.2,0.1,0.4,0.2,0.6,0.2c0.4,0,0.7-0.2,0.9-0.5    c0.3-0.5,0.2-1.2-0.3-1.5c-1.4-0.9-3-1.8-4.3-2.3C42.5,32,41.9,32.3,41.6,32.8z"/>
            <path d="M19.1,15.2c1.9,0,3.4-1.5,3.4-3.4S21,8.4,19.1,8.4c-1.9,0-3.4,1.5-3.4,3.4S17.3,15.2,19.1,15.2z M19.1,10.6    c0.6,0,1.2,0.5,1.2,1.2c0,0.6-0.5,1.2-1.2,1.2c-0.6,0-1.2-0.5-1.2-1.2C18,11.2,18.5,10.6,19.1,10.6z"/>
        </g>
    </symbol>
</svg>
